<svg width="151" height="32" viewBox="0 0 151 32" fill="none" xmlns="http://www.w3.org/2000/svg">
<g clip-path="url(#clip0)">
<path fill-rule="evenodd" clip-rule="evenodd" d="M144.814 8.09766H142.391L136.425 23.9021H138.623L140.976 17.4261H140.975L143.511 10.4428L148.212 23.9021H150.564L144.814 8.09766Z" fill="#0D2A0D"/>
<path fill-rule="evenodd" clip-rule="evenodd" d="M131.664 22.5792C131.586 22.2854 131.536 21.8362 131.513 21.2344L131.438 19.1149C131.402 18.1968 131.227 17.5333 130.914 17.1244C130.602 16.7155 130.136 16.3857 129.518 16.1349C130.222 15.7688 130.771 15.2845 131.163 14.682C131.555 14.0795 131.751 13.3048 131.751 12.3579C131.751 10.5436 131.02 9.29927 129.559 8.62474C128.789 8.27352 127.811 8.0979 126.625 8.0979H119.423V23.903H121.569V17.1264H126.316C127.169 17.1264 127.794 17.2232 128.192 17.4169C128.891 17.769 129.265 18.4613 129.313 19.4938L129.442 22.128C129.471 22.7454 129.507 23.1612 129.55 23.3755C129.582 23.5587 129.641 23.7363 129.723 23.903H132.356V23.5484C132.025 23.4043 131.795 23.0813 131.664 22.5792ZM128.717 14.7361C128.147 15.1377 127.373 15.3386 126.395 15.3386H121.569V9.93508H126.666C127.38 9.93508 127.95 10.0429 128.376 10.2586C129.173 10.6666 129.572 11.4339 129.572 12.5605C129.572 13.6097 129.287 14.3349 128.717 14.7361Z" fill="#0D2A0D"/>
<path d="M113.03 8.09766H110.862V23.9021H113.03V8.09766Z" fill="#0D2A0D"/>
<path fill-rule="evenodd" clip-rule="evenodd" d="M96.9015 21.4607L92.3469 8.0979H89.2715V23.903H91.3206V14.5753C91.3206 14.2025 91.3103 13.6198 91.2895 12.8273C91.2688 12.0348 91.258 11.4447 91.2571 11.057V10.5747L95.8225 23.9051H97.9501L102.474 10.5747C102.474 11.4303 102.466 12.23 102.451 12.9739C102.436 13.7177 102.43 14.2522 102.431 14.5773V23.9051H104.48V8.09993H101.426L96.9015 21.4607Z" fill="#0D2A0D"/>
<path fill-rule="evenodd" clip-rule="evenodd" d="M77.1531 8.0979H70.8204V23.903H77.1314C79.8136 23.903 81.705 22.7055 82.8056 20.3104C83.429 18.9532 83.7411 17.436 83.742 15.7587C83.742 13.5851 83.2135 11.8027 82.1566 10.4113C80.9717 8.86947 79.3039 8.09835 77.1531 8.0979ZM81.3832 17.7802C81.2007 18.7785 80.9018 19.5963 80.4867 20.2334C79.9662 21.0295 79.2984 21.5676 78.4836 21.8477C78.0261 21.9985 77.4422 22.074 76.7319 22.074H72.9885V9.93711H76.7116C78.4058 9.93711 79.6344 10.4788 80.3975 11.5622C81.1606 12.6456 81.5418 14.1664 81.5414 16.1248C81.5367 16.6801 81.4838 17.234 81.3832 17.7802Z" fill="#0D2A0D"/>
<path fill-rule="evenodd" clip-rule="evenodd" d="M62.5508 20.8674L54.6496 8.09766H52.1212V23.9021H54.1703V11.1472L62.1891 23.9021H64.5999V8.09766H62.5508V20.8674Z" fill="#0D2A0D"/>
<path d="M45.9872 8.09766H43.8191V23.9021H45.9872V8.09766Z" fill="#0D2A0D"/>
<path fill-rule="evenodd" clip-rule="evenodd" d="M28.4643 20.4722C23.3431 21.6603 23.7001 25.4529 21.1676 23.7819C19.3537 22.5877 20.5537 18.8512 23.6771 16.8316C23.6831 16.8273 23.6894 16.8235 23.696 16.8202C23.7745 16.7695 23.8569 16.7222 23.9381 16.6743C23.9989 16.6378 24.0577 16.6 24.1193 16.5648C23.9678 16.65 23.8204 16.74 23.6771 16.835L23.6704 16.76C23.6704 16.7709 23.6704 16.7823 23.6704 16.7931C23.5013 14.7885 23.3999 11.8969 19.7093 9.55589C16.9963 13.395 13.5896 11.9766 14.0899 18.8573C14.1352 19.0214 14.1805 19.1795 14.2251 19.3335C14.2156 19.3078 14.2075 19.2801 14.1987 19.2538C14.2061 19.276 14.2129 19.3004 14.221 19.3213C14.9647 21.8319 15.8152 23.0024 16.7901 23.5583C16.7051 23.6433 16.6118 23.7196 16.5115 23.7859C13.9749 25.4549 14.3319 21.6623 9.2026 20.4763C6.19682 19.7678 3.28501 21.5718 -0.00268555 25.5481C-0.00268555 21.7096 3.19104 15.5402 9.44666 15.5179C10.8826 15.5062 12.2967 15.8687 13.5497 16.5696C13.5591 16.631 13.5713 16.6912 13.5808 16.7533C13.4564 15.9467 13.394 15.1318 13.3942 14.3157C13.3942 9.06822 16.9415 6.79066 16.5717 2.23419C17.1463 2.78444 17.6831 3.33762 18.1821 3.89372C18.1645 3.87346 18.1476 3.8532 18.13 3.83361C18.9838 2.42022 20.029 1.13147 21.2359 0.00390625C21.9369 6.63126 24.3011 8.87302 24.389 14.3298C24.4101 15.0857 24.3189 15.8404 24.1186 16.5696C25.3705 15.8691 26.7834 15.5066 28.2182 15.5179C34.4637 15.5402 37.6534 21.7096 37.6534 25.5481C34.3711 21.5678 31.464 19.7637 28.4643 20.4722Z" fill="#3A7F0D"/>
<path fill-rule="evenodd" clip-rule="evenodd" d="M16.5419 2.23291C21.2351 6.72657 23.406 11.4958 24.0861 14.5143C24.2213 15.104 24.2118 15.8179 24.0969 16.5879C23.9455 16.673 23.7981 16.7628 23.6541 16.8581C23.4824 14.8493 23.4019 11.9274 19.6836 9.56947C16.9671 13.4113 13.5557 11.9929 14.0567 18.8823C14.102 19.0471 14.148 19.2052 14.1919 19.3599C13.6666 17.8989 13.361 16.1752 13.361 14.3326C13.361 9.0791 16.9131 6.79817 16.5385 2.23561" fill="#80B643"/>
<path fill-rule="evenodd" clip-rule="evenodd" d="M26.1711 23.6105C25.9695 23.6107 25.7762 23.6909 25.6337 23.8333C25.4912 23.9758 25.4112 24.169 25.4112 24.3704H25.3983C25.1881 26.9215 23.8853 30.5425 18.7628 30.5783C13.6152 30.6141 12.3686 26.9411 12.161 24.3704C12.164 24.2688 12.1466 24.1675 12.1098 24.0727C12.0729 23.9779 12.0174 23.8915 11.9465 23.8185C11.8756 23.7455 11.7908 23.6875 11.6971 23.6479C11.6033 23.6083 11.5026 23.5879 11.4008 23.5879C11.299 23.5879 11.1982 23.6083 11.1045 23.6479C11.0107 23.6875 10.9259 23.7455 10.855 23.8185C10.7841 23.8915 10.7286 23.9779 10.6918 24.0727C10.6549 24.1675 10.6375 24.2688 10.6405 24.3704H10.6466H10.6405C10.911 27.0417 11.7398 31.9954 18.7405 31.9967C25.6363 31.9967 26.5199 27.0661 26.9343 24.369C26.9342 24.2691 26.9143 24.1703 26.8758 24.0781C26.8373 23.9858 26.781 23.9021 26.7101 23.8317C26.6393 23.7612 26.5551 23.7054 26.4626 23.6675C26.3701 23.6295 26.2711 23.6102 26.1711 23.6105Z" fill="#80B643"/>
</g>
<defs>
<clipPath id="clip0">
<rect width="150.564" height="32" fill="white"/>
</clipPath>
</defs>
</svg>
